<svg xmlns="http://www.w3.org/2000/svg" xmlns:xlink="http://www.w3.org/1999/xlink" width="500" zoomAndPan="magnify" viewBox="0 0 375 374.999991" height="500" preserveAspectRatio="xMidYMid meet" version="1.0"><defs><g/><clipPath id="75b0200e61"><path d="M 74 94 L 307 94 L 307 303 L 74 303 Z M 74 94 " clip-rule="nonzero"/></clipPath><clipPath id="f541715951"><path d="M 87.546875 85.726562 L 318.289062 119.820312 L 287.484375 328.308594 L 56.738281 294.210938 Z M 87.546875 85.726562 " clip-rule="nonzero"/></clipPath><clipPath id="beb3297449"><path d="M 87.546875 85.726562 L 318.289062 119.820312 L 287.484375 328.308594 L 56.738281 294.210938 Z M 87.546875 85.726562 " clip-rule="nonzero"/></clipPath><clipPath id="e1c6bfc075"><path d="M 79 98 L 293 98 L 293 296 L 79 296 Z M 79 98 " clip-rule="nonzero"/></clipPath><clipPath id="2f4a3724e3"><path d="M 87.546875 85.726562 L 318.289062 119.820312 L 287.484375 328.308594 L 56.738281 294.210938 Z M 87.546875 85.726562 " clip-rule="nonzero"/></clipPath><clipPath id="052fcc73a4"><path d="M 87.546875 85.726562 L 318.289062 119.820312 L 287.484375 328.308594 L 56.738281 294.210938 Z M 87.546875 85.726562 " clip-rule="nonzero"/></clipPath><clipPath id="3ef11eed69"><path d="M 86 119 L 303 119 L 303 293 L 86 293 Z M 86 119 " clip-rule="nonzero"/></clipPath><clipPath id="eff2c50f87"><path d="M 87.546875 85.726562 L 318.289062 119.820312 L 287.484375 328.308594 L 56.738281 294.210938 Z M 87.546875 85.726562 " clip-rule="nonzero"/></clipPath><clipPath id="285d843292"><path d="M 87.546875 85.726562 L 318.289062 119.820312 L 287.484375 328.308594 L 56.738281 294.210938 Z M 87.546875 85.726562 " clip-rule="nonzero"/></clipPath></defs><g clip-path="url(#75b0200e61)"><g clip-path="url(#f541715951)"><g clip-path="url(#beb3297449)"><path fill="#1d5888" d="M 289.800781 152.136719 C 280.636719 163 269.199219 170.1875 256.269531 175.882812 C 241.132812 182.523438 225.375 183.273438 209.246094 185.636719 C 205.871094 186.148438 202.535156 186.710938 199.1875 187.359375 C 192.105469 199.585938 172.738281 211.667969 162.671875 210.179688 C 158.929688 209.625 166.316406 202.761719 166.796875 201.910156 C 167.863281 200.046875 168.453125 197.539062 168.917969 194.972656 C 164.503906 196.296875 160.125 197.671875 155.691406 199.125 C 145.535156 202.417969 133.117188 206.121094 130.078125 217.757812 C 127.105469 229.273438 137.59375 238.296875 148.851562 236.792969 C 161.582031 235.117188 174.6875 221.097656 184.964844 214 C 189.320312 210.996094 206.476562 190.105469 208.507812 201.921875 C 210.507812 213.378906 197.601562 226.945312 190.535156 233.722656 C 184.546875 239.433594 171.289062 247.667969 170.441406 255.765625 C 169.597656 263.859375 172.464844 273.90625 173.378906 282 C 173.898438 286.515625 176.820312 295.605469 175.015625 300.085938 C 170.582031 311.035156 155.65625 285.929688 153.730469 282.304688 C 150.902344 277.050781 148.664062 266.609375 144.1875 263.003906 C 143.242188 262.25 140.773438 261.707031 138.90625 261.257812 C 137.46875 262.363281 136.339844 263.164062 135.863281 263.402344 C 131.132812 265.953125 131.402344 263.839844 130.675781 258.941406 C 118.421875 255.902344 105.992188 254.636719 95.539062 247.15625 C 92.171875 248.507812 89.332031 249.582031 88.078125 250.054688 C 80.292969 253.035156 82.40625 247.679688 84.921875 241.941406 C 85.378906 240.953125 85.894531 239.84375 86.457031 238.695312 C 70.863281 220.480469 71.410156 196.253906 84.964844 175.316406 C 97.046875 156.617188 118.066406 136.035156 139.769531 128.691406 C 134.773438 122.328125 121.445312 109.589844 121.976562 100.351562 C 122.582031 90.902344 134.410156 95.636719 139.867188 97.367188 C 150.289062 100.621094 160.523438 104.550781 170.664062 108.511719 C 178.476562 111.554688 186.742188 116.292969 194.90625 118.160156 C 206.933594 120.949219 223.386719 116.699219 235.703125 115.75 C 256.289062 114.175781 276.835938 113.738281 297.441406 116.785156 C 318.089844 119.835938 296.460938 144.242188 289.800781 152.136719 Z M 289.800781 152.136719 " fill-opacity="1" fill-rule="nonzero"/></g></g></g><g clip-path="url(#e1c6bfc075)"><g clip-path="url(#2f4a3724e3)"><g clip-path="url(#052fcc73a4)"><path fill="#1d5888" d="M 87.921875 234.734375 C 88.070312 234.933594 88.222656 235.089844 88.367188 235.285156 C 88.214844 235.132812 88.070312 234.933594 87.921875 234.734375 Z M 129.230469 250.289062 C 129.46875 251.949219 129.742188 253.660156 130.011719 255.109375 C 120.53125 253.222656 110.675781 251.8125 102.601562 247.234375 C 101.589844 246.644531 100.578125 246.054688 99.660156 245.4375 C 102.285156 244.332031 105.003906 243.195312 107.40625 242.097656 C 107.890625 242.390625 108.417969 242.6875 108.945312 242.984375 C 111.378906 244.355469 113.9375 245.480469 116.566406 246.441406 C 116.890625 246.621094 117.136719 246.746094 117.417969 246.917969 C 117.425781 246.875 117.476562 246.839844 117.480469 246.796875 C 121.273438 248.191406 125.25 249.261719 129.230469 250.289062 Z M 120.535156 248.433594 C 120.523438 248.210938 119.972656 247.777344 119.746094 247.832031 C 119.339844 247.90625 119.019531 248.296875 118.328125 248.808594 C 119.113281 249.144531 119.546875 249.472656 119.953125 249.402344 C 120.222656 249.355469 120.570312 248.789062 120.535156 248.433594 Z M 292.992188 120.125 C 291.9375 120.410156 290.984375 120.621094 290.265625 120.734375 C 280.542969 122.285156 270.867188 123.800781 261.136719 125.394531 C 246.816406 127.71875 232.671875 131.210938 219.019531 136.140625 C 218.726562 134.863281 218.484375 133.511719 218.28125 132.207031 C 217.984375 130.359375 217.785156 128.441406 217.65625 126.621094 L 217.671875 126.535156 C 217.636719 126.175781 217.464844 125.84375 217.140625 125.664062 C 216.617188 125.324219 215.898438 125.4375 215.550781 126 C 215.320312 126.363281 215.140625 126.6875 214.957031 127.054688 C 214.777344 127.378906 214.589844 127.75 214.453125 128.078125 C 214.128906 128.777344 213.851562 129.484375 213.65625 130.203125 C 213.488281 130.75 213.3125 131.339844 213.1875 131.890625 C 213.179688 131.933594 213.128906 131.972656 213.125 132.015625 C 213.125 132.015625 213.167969 132.019531 213.167969 132.019531 C 212.996094 132.875 212.871094 133.734375 212.785156 134.601562 C 212.679688 135.90625 212.707031 137.226562 212.910156 138.53125 C 212.207031 138.824219 211.460938 139.109375 210.757812 139.402344 C 210.464844 138.125 210.210938 136.859375 210.007812 135.554688 C 209.710938 133.707031 209.507812 131.789062 209.382812 129.96875 L 209.394531 129.882812 C 209.359375 129.523438 209.191406 129.191406 208.863281 129.011719 C 208.34375 128.671875 207.625 128.785156 207.277344 129.347656 C 207.046875 129.710938 206.867188 130.035156 206.679688 130.402344 C 206.5 130.730469 206.316406 131.097656 206.179688 131.429688 C 205.855469 132.128906 205.574219 132.832031 205.378906 133.550781 C 204.90625 134.976562 204.640625 136.476562 204.511719 137.949219 C 204.394531 139.339844 204.453125 140.710938 204.644531 142.101562 C 204.410156 142.199219 204.128906 142.332031 203.894531 142.429688 C 203.234375 142.726562 202.566406 143.070312 201.890625 143.496094 C 201.761719 142.863281 201.644531 142.1875 201.558594 141.558594 C 201.261719 139.710938 201.0625 137.792969 200.933594 135.972656 L 200.949219 135.886719 C 200.914062 135.527344 200.742188 135.195312 200.417969 135.015625 C 199.894531 134.675781 199.167969 134.832031 198.828125 135.351562 C 198.597656 135.714844 198.417969 136.039062 198.234375 136.40625 C 198.054688 136.734375 197.867188 137.101562 197.730469 137.433594 C 197.40625 138.132812 197.128906 138.835938 196.933594 139.554688 C 196.457031 140.980469 196.191406 142.480469 196.0625 143.953125 C 196.003906 144.957031 195.984375 145.964844 196.054688 146.984375 C 194.574219 147.777344 193.113281 148.441406 191.699219 148.804688 C 188.011719 149.664062 182.113281 147.035156 177.980469 146.734375 C 166.644531 145.804688 155.167969 147.625 143.996094 149.445312 C 139.042969 150.253906 134.070312 151.1875 129.128906 152.214844 C 127.765625 152.5 124.371094 152.566406 123.265625 153.503906 C 119.574219 156.472656 127.878906 158.582031 130.027344 159.511719 C 134.566406 161.503906 139.066406 163.484375 143.613281 165.433594 C 143.421875 165.535156 143.273438 165.644531 143.078125 165.792969 L 142.492188 166.191406 C 142.441406 166.226562 142.390625 166.261719 142.34375 166.300781 C 140.234375 167.484375 138.160156 168.714844 136.046875 169.941406 C 135.53125 169.558594 134.96875 169.210938 134.339844 168.984375 C 133.136719 168.5 131.796875 168.347656 130.507812 168.460938 C 129.222656 168.535156 127.945312 168.832031 126.777344 169.316406 C 126.171875 169.535156 125.554688 169.839844 125.011719 170.242188 C 124.46875 170.648438 123.957031 171.144531 123.597656 171.792969 C 123.242188 172.398438 123.070312 172.988281 122.785156 173.429688 C 122.542969 173.878906 122.238281 174.140625 121.738281 174.242188 C 121.234375 174.390625 120.570312 174.421875 119.917969 174.675781 C 119.265625 174.933594 118.683594 175.285156 118.183594 175.695312 C 117.179688 176.558594 116.449219 177.636719 115.816406 178.640625 C 115.476562 179.164062 115.140625 179.640625 114.804688 180.121094 C 114.640625 180.359375 114.429688 180.589844 114.261719 180.832031 C 114.050781 181.0625 113.890625 181.257812 113.789062 181.640625 C 114.183594 181.652344 114.472656 181.476562 114.726562 181.25 C 114.980469 181.023438 115.183594 180.835938 115.398438 180.558594 C 115.820312 180.09375 116.203125 179.578125 116.539062 179.101562 C 116.921875 178.585938 117.214844 178.101562 117.589844 177.628906 C 117.96875 177.160156 118.382812 176.738281 118.828125 176.40625 C 119.273438 176.078125 119.753906 175.796875 120.257812 175.652344 C 120.761719 175.503906 121.335938 175.503906 122.019531 175.339844 C 122.382812 175.261719 122.75 175.140625 123.054688 174.878906 C 123.390625 174.664062 123.617188 174.34375 123.839844 174.027344 C 124.191406 173.417969 124.410156 172.835938 124.695312 172.394531 C 124.980469 171.953125 125.339844 171.609375 125.78125 171.28125 C 126.226562 170.949219 126.746094 170.71875 127.261719 170.488281 C 128.339844 170.03125 129.484375 169.71875 130.640625 169.625 C 131.804688 169.488281 132.9375 169.570312 134.074219 169.914062 C 134.488281 170.0625 134.90625 170.210938 135.320312 170.40625 C 122.535156 178.097656 109.882812 187.257812 101.105469 199.0625 C 96.445312 205.316406 93.996094 212.074219 93.828125 218.554688 C 93.589844 218.386719 93.386719 218.269531 93.144531 218.144531 C 93.0625 218.089844 92.730469 218.570312 91.824219 219.621094 C 92.714844 219.839844 93.300781 220.058594 93.871094 220.054688 C 93.953125 222.484375 94.347656 224.871094 95.0625 227.175781 C 92.734375 229.25 90.648438 232.0625 88.863281 234.917969 C 88.492188 234.160156 87.78125 233.308594 87.890625 232.578125 C 87.925781 232.320312 86.722656 231.835938 85.410156 231.199219 C 74.460938 213.101562 78.957031 189.195312 93.433594 170.675781 C 106.550781 153.890625 125.714844 136.328125 147 131.210938 C 143.449219 126.992188 140 122.660156 136.695312 118.261719 C 134.605469 115.445312 124.253906 103.984375 126.074219 99.988281 C 128.667969 94.351562 165.726562 110.988281 170.507812 112.839844 C 179.695312 116.394531 189.816406 122.855469 199.726562 122.738281 C 214.785156 122.546875 230.042969 120.449219 245.078125 119.242188 C 244.859375 120.132812 244.652344 120.9375 244.589844 121.0625 C 244.242188 121.316406 244.902344 121.019531 245.242188 120.5 C 245.417969 120.214844 245.234375 119.664062 245.171875 119.214844 C 245.484375 119.171875 245.792969 119.171875 246.105469 119.132812 C 260.808594 117.789062 277.375 118.125 292.992188 120.125 Z M 83.574219 197.523438 C 83.5625 197.609375 83.554688 197.652344 83.585938 197.746094 C 83.574219 197.832031 83.652344 197.886719 83.855469 198.007812 C 84.082031 197.953125 84.175781 197.921875 84.179688 197.878906 C 84.1875 197.835938 84.238281 197.796875 84.25 197.710938 C 84.304688 197.632812 84.367188 197.511719 84.421875 197.429688 C 84.542969 197.226562 84.617188 197.019531 84.777344 196.824219 C 85.09375 196.476562 85.464844 196.046875 85.75 195.605469 C 86.03125 195.164062 86.203125 194.617188 86.320312 194.105469 C 86.402344 193.855469 86.441406 193.597656 86.476562 193.339844 C 86.496094 193.210938 86.515625 193.082031 86.492188 192.945312 L 86.480469 192.722656 C 86.492188 192.636719 86.414062 192.582031 86.167969 192.457031 C 85.90625 192.464844 85.8125 192.492188 85.800781 192.578125 L 85.6875 192.738281 C 85.625 192.863281 85.570312 192.941406 85.507812 193.0625 C 85.390625 193.265625 85.308594 193.519531 85.191406 193.71875 C 84.992188 194.175781 84.714844 194.574219 84.519531 194.984375 L 83.925781 196.347656 C 83.800781 196.589844 83.675781 196.835938 83.59375 197.089844 C 83.617188 197.222656 83.59375 197.394531 83.574219 197.523438 Z M 85.414062 217.488281 L 85.226562 216.976562 C 85.105469 216.605469 85.023438 216.285156 84.902344 215.917969 C 84.777344 215.546875 84.695312 215.226562 84.574219 214.859375 L 84.289062 213.804688 C 83.925781 212.390625 83.652344 210.984375 83.425781 209.546875 C 83.199219 208.105469 83.015625 206.671875 82.964844 205.214844 L 82.996094 204.121094 L 83.066406 203.03125 C 83.117188 202.6875 83.132812 202.292969 83.140625 201.945312 L 83.179688 201.378906 C 83.207031 201.207031 83.144531 201.023438 82.960938 200.773438 C 82.679688 200.910156 82.609375 201.074219 82.578125 201.289062 L 82.453125 201.84375 C 82.394531 202.230469 82.300781 202.566406 82.246094 202.953125 L 82.121094 204.078125 L 82.042969 205.210938 C 81.949219 206.734375 81.949219 208.230469 82.121094 209.75 C 82.289062 211.269531 82.691406 212.734375 83.179688 214.167969 L 83.550781 215.234375 C 83.671875 215.605469 83.84375 215.9375 84.011719 216.269531 C 84.183594 216.601562 84.355469 216.933594 84.523438 217.269531 L 84.804688 217.75 C 84.914062 217.898438 85.027344 218.046875 85.371094 218.097656 C 85.492188 217.851562 85.476562 217.671875 85.414062 217.488281 Z M 91.277344 218.265625 C 90.992188 218.136719 90.640625 217.820312 90.371094 217.867188 C 90.050781 217.953125 89.777344 218.308594 89.230469 218.753906 C 89.945312 218.949219 90.351562 219.183594 90.628906 219.09375 C 90.949219 219.007812 91.105469 218.546875 91.277344 218.265625 Z M 197.273438 123.871094 L 188.535156 123.195312 C 182.886719 122.757812 177.335938 121.363281 172.136719 119.058594 C 164.503906 115.6875 153.265625 110.820312 147.972656 109.160156 C 139.53125 106.503906 138.148438 106.035156 138.148438 106.035156 L 149.234375 112.507812 C 149.234375 112.507812 147.050781 113.023438 148.972656 115.765625 C 150.941406 118.519531 153.289062 120.183594 153.289062 120.183594 C 153.289062 120.183594 157.308594 119.460938 160.5625 120.335938 C 163.820312 121.214844 167.183594 123.425781 167.183594 123.425781 C 167.183594 123.425781 161.015625 122.03125 159.191406 121.585938 C 157.367188 121.140625 153.265625 122.421875 153.265625 122.421875 L 149.234375 118.179688 C 149.234375 118.179688 148.746094 119.996094 150.09375 121.867188 C 151.488281 123.742188 152.777344 124.546875 152.777344 124.546875 C 152.777344 124.546875 149.160156 123.136719 149.101562 123.828125 C 148.984375 125.21875 152.964844 128.925781 152.964844 128.925781 Z M 199.183594 125.515625 C 198.25 125.289062 197.671875 125.027344 197.136719 125.082031 C 196.871094 125.085938 196.691406 125.71875 196.460938 126.082031 C 196.945312 126.371094 197.375 126.742188 197.914062 126.953125 C 197.953125 127.003906 198.238281 126.5625 199.183594 125.515625 Z M 201.589844 126.179688 C 200.871094 125.984375 200.46875 125.75 200.191406 125.839844 C 199.914062 125.929688 199.757812 126.390625 199.539062 126.667969 C 199.828125 126.796875 200.179688 127.113281 200.449219 127.066406 C 200.769531 126.980469 201.042969 126.625 201.589844 126.179688 Z M 220.367188 129.699219 C 219.871094 129.496094 219.386719 129.203125 218.875 129.085938 C 218.703125 129.058594 218.460938 129.507812 218.246094 129.78125 C 218.648438 130.019531 219.054688 130.253906 219.539062 130.546875 C 219.902344 130.160156 220.113281 129.925781 220.367188 129.699219 Z M 261.023438 120.808594 C 261.066406 120.507812 260.957031 120.359375 260.835938 120.296875 C 260.71875 120.191406 260.601562 120.085938 260.480469 120.023438 C 260.238281 119.859375 260 119.691406 259.710938 119.558594 C 259.183594 119.261719 258.601562 119.042969 258.007812 118.914062 C 256.820312 118.605469 255.554688 118.550781 254.378906 118.773438 C 253.203125 118.992188 252.074219 119.484375 251.0625 120.082031 C 250.539062 120.359375 250.050781 120.683594 249.566406 121.003906 C 249.316406 121.1875 249.070312 121.371094 248.867188 121.5625 C 248.761719 121.679688 248.664062 121.75 248.558594 121.867188 C 248.453125 121.984375 248.390625 122.105469 248.4375 122.378906 C 248.691406 122.457031 248.828125 122.433594 248.96875 122.367188 L 249.351562 122.160156 L 250.070312 121.738281 C 250.554688 121.457031 251.035156 121.179688 251.546875 120.988281 C 252.15625 120.730469 252.796875 120.558594 253.394531 120.382812 C 253.023438 120.8125 252.722656 121.339844 252.648438 121.855469 C 252.414062 123.449219 253.859375 124.671875 255.894531 124.578125 C 257.925781 124.527344 259.75 123.167969 259.984375 121.578125 C 260.03125 121.277344 259.988281 120.964844 259.941406 120.691406 C 260.027344 120.707031 260.0625 120.753906 260.148438 120.765625 C 260.273438 120.828125 260.402344 120.847656 260.523438 120.910156 C 260.609375 120.921875 260.78125 120.949219 261.023438 120.808594 Z M 161.617188 278.898438 C 159.601562 273.808594 157.621094 268.769531 155.601562 263.679688 C 154.832031 261.765625 154.015625 257.160156 152.46875 255.746094 C 151.691406 255.058594 148.71875 254.925781 147.738281 254.738281 C 147.398438 254.644531 147.097656 254.601562 146.761719 254.507812 C 145.574219 255.695312 144.054688 257.050781 142.503906 258.316406 C 149.003906 260.726562 149.054688 263.066406 152.550781 270.65625 C 152.753906 270.160156 152.953125 269.707031 153.160156 269.207031 C 153.433594 269.425781 153.925781 269.671875 153.9375 269.894531 C 154.046875 270.921875 154.03125 271.929688 154.058594 273.824219 C 153.546875 272.828125 153.085938 271.792969 152.621094 270.757812 C 156.859375 279.863281 161.648438 288.21875 168.140625 295.730469 C 167.84375 294.761719 167.617188 293.9375 167.457031 293.519531 C 165.496094 288.65625 163.574219 283.800781 161.617188 278.898438 Z M 161.617188 278.898438 " fill-opacity="1" fill-rule="nonzero"/></g></g></g><g clip-path="url(#3ef11eed69)"><g clip-path="url(#eff2c50f87)"><g clip-path="url(#285d843292)"><path fill="#ff993b" d="M 182.296875 192.203125 C 182.480469 192.449219 182.609375 192.46875 182.746094 192.445312 L 183.101562 192.410156 C 183.371094 192.359375 183.59375 192.351562 183.863281 192.300781 C 184.355469 192.242188 184.863281 192.097656 185.359375 191.996094 C 186.355469 191.792969 187.304688 191.625 188.273438 191.328125 C 189.234375 191.074219 190.164062 190.726562 191.136719 190.386719 C 191.230469 190.355469 191.320312 190.328125 191.414062 190.296875 C 190.980469 190.847656 190.589844 191.40625 190.15625 191.957031 C 189.980469 191.972656 189.800781 191.992188 189.617188 192.054688 C 189.074219 192.148438 188.605469 192.34375 188.09375 192.53125 C 187.859375 192.628906 187.582031 192.71875 187.347656 192.816406 C 187.207031 192.882812 187.113281 192.914062 186.972656 192.980469 L 186.78125 193.085938 C 186.730469 193.121094 186.675781 193.199219 186.679688 193.464844 C 186.820312 193.707031 186.902344 193.761719 186.949219 193.726562 L 187.171875 193.714844 C 187.300781 193.734375 187.4375 193.707031 187.570312 193.683594 C 187.835938 193.679688 188.105469 193.632812 188.378906 193.585938 C 188.511719 193.558594 188.648438 193.535156 188.785156 193.511719 C 183.257812 199.683594 176.355469 203.542969 167.519531 205.929688 C 169.96875 203.039062 172.933594 198.160156 174.316406 193.265625 C 180.375 191.523438 186.453125 189.960938 192.589844 188.582031 C 192.480469 188.738281 192.367188 188.898438 192.253906 189.058594 C 191.800781 189.167969 191.386719 189.28125 190.9375 189.347656 C 189.941406 189.550781 188.949219 189.710938 187.996094 189.921875 C 187 190.128906 186.070312 190.472656 185.101562 190.769531 C 184.640625 190.921875 184.132812 191.066406 183.671875 191.21875 C 183.4375 191.316406 183.203125 191.414062 182.96875 191.511719 L 182.636719 191.679688 C 182.484375 191.832031 182.339844 191.902344 182.296875 192.203125 Z M 297.433594 135.285156 C 293.488281 141.472656 288.917969 147.699219 283.800781 153.183594 C 287.277344 144.511719 270.898438 141.125 258.855469 140.839844 C 244.226562 140.476562 238.105469 147.089844 238.105469 147.089844 C 238.105469 147.089844 262.890625 148.335938 269.375 152.324219 C 275.863281 156.316406 270.820312 164.273438 270.820312 164.273438 L 271.0625 164.132812 C 258.726562 172.332031 243.132812 177.324219 229.066406 179.113281 C 220.726562 180.210938 212.464844 181.40625 204.296875 182.839844 C 204.296875 182.839844 204.296875 182.839844 204.339844 182.84375 C 205.007812 182.195312 205.628906 181.542969 206.207031 180.921875 C 205.960938 180.796875 205.5625 180.519531 205.414062 180.628906 C 203.921875 181.507812 202.457031 182.480469 201.003906 183.40625 C 200.953125 183.441406 200.910156 183.4375 200.902344 183.480469 C 199.59375 183.726562 198.324219 183.976562 197.015625 184.222656 C 196.292969 184.335938 195.609375 184.5 194.882812 184.65625 C 188.222656 186 181.628906 187.488281 175.046875 189.195312 C 174.40625 189.367188 173.765625 189.535156 173.125 189.703125 C 171.9375 190.011719 170.792969 190.328125 169.597656 190.675781 C 162.542969 192.625 155.53125 194.839844 148.523438 197.363281 C 139.464844 200.640625 130.464844 205.023438 126.898438 214.605469 C 122.792969 225.734375 128.3125 235.957031 139.425781 239.578125 C 154.101562 244.382812 165.671875 232.117188 176.710938 224.339844 C 186.917969 217.148438 196.246094 210.832031 204.546875 201.378906 C 203.371094 215.578125 193.679688 225.222656 183.949219 234.554688 C 180.78125 237.558594 175.078125 241.636719 170.933594 245.902344 C 170.914062 245.726562 170.898438 245.546875 170.835938 245.363281 C 170.753906 245.042969 170.625 244.714844 170.496094 244.386719 C 170.429688 244.246094 170.414062 244.066406 170.394531 243.890625 C 170.363281 243.796875 170.335938 243.703125 170.296875 243.65625 L 170.230469 243.515625 C 170.195312 243.464844 170.152344 243.457031 169.894531 243.421875 C 169.664062 243.472656 169.617188 243.511719 169.609375 243.554688 L 169.546875 243.675781 C 169.535156 243.761719 169.523438 243.847656 169.507812 243.933594 C 169.527344 244.113281 169.542969 244.292969 169.519531 244.464844 C 169.511719 244.8125 169.453125 245.199219 169.53125 245.5625 C 169.566406 245.921875 169.695312 246.246094 169.867188 246.582031 C 169.894531 246.671875 169.925781 246.765625 170 246.863281 C 169.578125 247.328125 169.207031 247.757812 168.878906 248.191406 C 168.839844 247.878906 168.796875 247.566406 168.710938 247.246094 C 168.617188 246.703125 168.433594 246.148438 168.382812 245.613281 C 168.335938 245.34375 168.335938 245.035156 168.332031 244.769531 C 168.308594 244.636719 168.324219 244.507812 168.300781 244.371094 L 168.246094 244.144531 C 168.21875 244.050781 168.179688 244.003906 167.929688 243.921875 C 167.699219 243.976562 167.601562 244.046875 167.597656 244.089844 L 167.519531 244.300781 C 167.503906 244.429688 167.476562 244.601562 167.457031 244.730469 L 167.410156 245.644531 C 167.363281 246.253906 167.316406 246.863281 167.40625 247.449219 C 167.449219 248.070312 167.671875 248.628906 167.898438 249.191406 C 167.933594 249.238281 167.964844 249.332031 167.957031 249.375 C 167.671875 249.816406 167.386719 250.257812 167.144531 250.707031 C 167.019531 250.070312 166.898438 249.394531 166.773438 248.761719 C 166.605469 247.8125 166.4375 246.867188 166.457031 245.855469 L 166.476562 245.113281 L 166.542969 244.375 C 166.582031 244.117188 166.613281 243.902344 166.609375 243.636719 L 166.660156 243.292969 C 166.679688 243.164062 166.652344 243.027344 166.457031 242.867188 C 166.1875 242.917969 166.125 243.039062 166.0625 243.160156 L 165.917969 243.535156 C 165.839844 243.789062 165.757812 244.039062 165.71875 244.296875 C 165.644531 244.8125 165.566406 245.328125 165.492188 245.847656 C 165.382812 246.886719 165.359375 247.9375 165.46875 248.964844 C 165.582031 249.992188 165.871094 251 166.210938 251.972656 C 166.277344 252.117188 166.300781 252.25 166.371094 252.394531 C 166.289062 252.644531 166.199219 252.941406 166.164062 253.199219 C 164.667969 260.054688 168.214844 271.433594 168.988281 278.40625 C 169.503906 283.226562 170.066406 288.058594 170.585938 292.882812 C 169.660156 290.503906 168.652344 288.417969 168.492188 288 C 165.515625 280.484375 162.5 272.917969 159.523438 265.402344 C 158.308594 262.320312 157.230469 256.230469 154.90625 253.820312 C 153.578125 252.394531 151.46875 252.390625 149.632812 252.03125 C 149.375 251.992188 149.121094 251.910156 148.863281 251.871094 C 149.042969 251.546875 149.082031 251.289062 148.976562 251.097656 C 148.765625 250.757812 148.085938 250.878906 147.195312 251.273438 C 147.101562 251.304688 147.003906 251.378906 146.910156 251.40625 C 146.34375 251.675781 145.664062 252.101562 144.984375 252.53125 C 144.449219 252.890625 143.863281 253.285156 143.277344 253.683594 C 141.902344 254.667969 140.417969 255.765625 139.074219 256.84375 C 139.050781 256.707031 138.984375 256.566406 138.960938 256.429688 C 138.808594 255.96875 138.613281 255.5 138.417969 255.03125 C 138.320312 254.796875 138.308594 254.574219 138.21875 254.300781 C 138.195312 254.164062 138.164062 254.070312 138.097656 253.929688 L 138.039062 253.746094 C 138 253.695312 137.921875 253.640625 137.707031 253.609375 C 137.472656 253.707031 137.414062 253.785156 137.410156 253.828125 L 137.378906 254.042969 C 137.359375 254.171875 137.382812 254.308594 137.363281 254.4375 C 137.367188 254.699219 137.421875 254.929688 137.46875 255.199219 C 137.523438 255.734375 137.539062 256.21875 137.679688 256.769531 C 137.679688 256.769531 137.679688 256.769531 137.671875 256.8125 C 137.714844 257.125 137.847656 257.410156 137.980469 257.691406 C 137.875 257.808594 137.734375 257.875 137.628906 257.992188 C 137.332031 258.210938 137.035156 258.433594 136.785156 258.65625 C 136.761719 258.523438 136.730469 258.429688 136.707031 258.292969 C 136.6875 258.117188 136.621094 257.976562 136.601562 257.796875 C 136.539062 257.347656 136.472656 256.898438 136.363281 256.441406 C 136.332031 256.351562 136.347656 256.265625 136.308594 256.214844 C 136.148438 255.53125 135.984375 254.847656 135.871094 254.128906 C 135.792969 253.765625 135.800781 253.414062 135.765625 253.058594 C 135.746094 252.878906 135.730469 252.699219 135.667969 252.515625 L 135.621094 252.246094 C 135.589844 252.152344 135.5625 252.058594 135.308594 251.980469 C 135.074219 252.078125 135.019531 252.15625 135.007812 252.242188 L 134.96875 252.5 C 134.941406 252.671875 134.917969 252.84375 134.929688 253.066406 C 134.921875 253.417969 134.949219 253.816406 134.941406 254.167969 C 134.9375 254.78125 134.929688 255.4375 135.011719 256.066406 C 135.042969 256.160156 135.023438 256.289062 135.054688 256.378906 C 135.089844 256.738281 135.167969 257.101562 135.289062 257.46875 C 135.367188 257.832031 135.488281 258.203125 135.617188 258.53125 C 135.707031 258.804688 135.796875 259.082031 135.894531 259.316406 C 135.597656 259.539062 135.34375 259.765625 135.140625 259.953125 C 134.691406 260.328125 134.34375 260.582031 134.148438 260.730469 C 134.09375 260.503906 134.066406 260.101562 133.960938 259.605469 C 133.886719 258.933594 133.75 258.078125 133.585938 257.085938 C 133.523438 256.636719 133.460938 256.144531 133.359375 255.648438 C 133.140625 254.164062 132.851562 252.539062 132.558594 250.957031 C 132.425781 250.367188 132.335938 249.78125 132.199219 249.234375 C 132.058594 248.6875 131.921875 248.136719 131.777344 247.632812 C 131.550781 246.765625 131.273438 245.976562 131.011719 245.367188 C 130.617188 244.472656 130.167969 243.921875 129.726562 243.945312 C 129.0625 243.980469 128.882812 245.183594 128.9375 246.90625 C 122.667969 245.320312 116.261719 243.449219 110.699219 240.34375 C 113.453125 238.949219 115.25 237.808594 115.03125 237.203125 C 114.933594 236.96875 114.453125 236.941406 113.648438 237.042969 C 112.386719 237.253906 110.367188 237.832031 108 238.667969 C 107.445312 238.851562 106.84375 239.070312 106.238281 239.289062 C 105.683594 239.46875 105.125 239.695312 104.5625 239.921875 C 101.957031 240.898438 99.203125 241.984375 96.585938 243.046875 C 96.492188 243.078125 96.398438 243.109375 96.308594 243.140625 C 96.363281 243.058594 96.367188 243.015625 96.425781 242.9375 C 96.667969 242.488281 96.871094 241.992188 96.953125 241.433594 C 96.988281 240.910156 96.929688 240.417969 96.851562 240.054688 C 96.777344 239.648438 96.738281 239.335938 96.832031 238.996094 C 96.882812 238.652344 97.0625 238.328125 97.277344 238.050781 C 97.390625 237.894531 97.496094 237.777344 97.644531 237.667969 C 97.699219 237.585938 97.796875 237.515625 97.902344 237.398438 C 97.953125 237.359375 98.007812 237.28125 97.984375 237.144531 C 97.996094 237.058594 97.929688 236.917969 97.800781 236.898438 C 97.703125 236.972656 97.617188 236.960938 97.574219 236.953125 C 97.53125 236.945312 97.488281 236.941406 97.488281 236.941406 C 97.4375 236.976562 97.34375 237.007812 97.246094 237.082031 C 97.054688 237.183594 96.859375 237.332031 96.695312 237.527344 C 96.382812 237.875 96.140625 238.324219 95.988281 238.742188 C 95.832031 239.203125 95.757812 239.71875 95.78125 240.160156 C 95.800781 240.601562 95.792969 240.953125 95.75 241.253906 C 95.710938 241.511719 95.625 241.808594 95.492188 242.097656 C 95.355469 242.425781 95.175781 242.753906 94.949219 243.113281 C 94.941406 243.15625 94.890625 243.195312 94.886719 243.238281 C 94.71875 243.476562 94.550781 243.714844 94.382812 243.953125 C 93.867188 244.183594 93.3125 244.367188 92.792969 244.597656 C 91.765625 245.015625 90.828125 245.40625 89.984375 245.765625 C 90.21875 245.359375 90.457031 244.957031 90.726562 244.601562 C 91 244.246094 91.316406 243.894531 91.667969 243.597656 C 91.824219 243.445312 91.96875 243.332031 92.125 243.179688 C 92.378906 242.953125 92.71875 242.742188 93.03125 242.390625 C 93.195312 242.195312 93.355469 242 93.433594 241.75 C 93.503906 241.582031 93.621094 241.378906 93.648438 241.207031 C 93.714844 241.042969 93.746094 240.828125 93.773438 240.65625 C 93.90625 240.058594 93.945312 239.492188 94.019531 238.976562 C 94.117188 238.332031 94.304688 237.65625 94.570312 237.039062 C 94.839844 236.417969 95.191406 235.808594 95.625 235.257812 C 95.839844 234.984375 96.058594 234.707031 96.269531 234.476562 C 96.375 234.359375 96.484375 234.199219 96.632812 234.089844 C 96.738281 233.972656 96.851562 233.8125 96.851562 233.507812 C 96.554688 233.417969 96.371094 233.480469 96.222656 233.589844 C 96.074219 233.699219 95.925781 233.808594 95.777344 233.917969 C 95.484375 234.140625 95.222656 234.410156 94.957031 234.722656 C 94.476562 235.308594 94.070312 235.953125 93.710938 236.601562 C 93.351562 237.253906 93.066406 238 92.871094 238.71875 C 92.785156 239.015625 92.734375 239.359375 92.644531 239.652344 C 92.546875 240.035156 92.488281 240.421875 92.351562 240.753906 C 92.265625 241.046875 92.097656 241.285156 91.9375 241.484375 C 91.777344 241.679688 91.523438 241.90625 91.226562 242.125 C 91.023438 242.316406 90.824219 242.460938 90.664062 242.65625 C 90.300781 243.042969 89.976562 243.433594 89.691406 243.875 C 89.289062 244.519531 88.921875 245.214844 88.6875 245.925781 C 88.671875 246.011719 88.613281 246.132812 88.597656 246.21875 C 87.476562 246.667969 86.582031 247.066406 86.066406 247.296875 C 86.710938 245.019531 87.605469 242.820312 88.667969 240.691406 C 89.097656 239.875 89.519531 239.105469 89.945312 238.289062 C 90.121094 238.003906 90.292969 237.722656 90.46875 237.441406 C 91.917969 235.0625 93.613281 232.808594 95.457031 230.75 C 95.667969 230.519531 95.925781 230.25 96.285156 229.90625 C 96.542969 229.636719 96.847656 229.375 97.148438 229.109375 C 97.558594 228.730469 97.964844 228.351562 98.421875 227.9375 C 99.953125 226.492188 101.542969 224.96875 101.980469 224.066406 C 102.417969 223.207031 101.839844 222.949219 99.277344 223.929688 C 98.625 224.1875 97.957031 224.527344 97.285156 224.910156 C 97.117188 224.269531 96.949219 223.632812 96.863281 223.003906 C 97.253906 222.753906 97.679688 222.550781 98.023438 222.296875 C 98.460938 222.007812 98.820312 221.667969 99.214844 221.371094 C 99.414062 221.226562 99.609375 221.078125 99.8125 220.890625 C 99.914062 220.816406 100.019531 220.699219 100.074219 220.621094 L 100.226562 220.46875 C 100.277344 220.429688 100.289062 220.34375 100.199219 220.066406 C 100.011719 219.863281 99.921875 219.851562 99.875 219.886719 L 99.691406 219.949219 C 99.554688 219.972656 99.414062 220.039062 99.320312 220.070312 C 99.085938 220.167969 98.84375 220.308594 98.609375 220.40625 C 98.136719 220.640625 97.660156 220.878906 97.253906 221.257812 C 97.058594 221.40625 96.851562 221.59375 96.691406 221.792969 C 96.609375 221.164062 96.570312 220.542969 96.527344 219.921875 C 96.8125 219.789062 97.097656 219.652344 97.34375 219.46875 C 97.769531 219.269531 98.121094 218.96875 98.472656 218.671875 C 98.667969 218.523438 98.859375 218.417969 99.058594 218.273438 C 99.15625 218.199219 99.253906 218.125 99.3125 218.046875 L 99.460938 217.9375 C 99.507812 217.898438 99.523438 217.8125 99.472656 217.542969 C 99.285156 217.339844 99.203125 217.285156 99.15625 217.320312 L 98.976562 217.339844 C 98.839844 217.363281 98.75 217.390625 98.613281 217.417969 C 98.386719 217.46875 98.144531 217.609375 97.910156 217.707031 C 97.441406 217.902344 97.015625 218.101562 96.621094 218.398438 C 96.574219 218.433594 96.523438 218.46875 96.472656 218.507812 C 96.574219 213.949219 98.011719 209.285156 100.5 204.949219 C 109.367188 189.558594 126.332031 178.570312 141.664062 169.714844 L 142.042969 169.507812 L 142.804688 169.136719 L 144.324219 168.351562 C 145.324219 167.839844 146.367188 167.332031 147.371094 166.777344 C 148.375 166.222656 149.34375 165.621094 150.347656 165.066406 C 150.875 164.792969 151.347656 164.554688 151.871094 164.28125 C 152.113281 164.140625 152.394531 164.003906 152.636719 163.863281 L 153.019531 163.65625 C 153.160156 163.589844 153.265625 163.476562 153.261719 163.210938 C 153.023438 163.042969 152.886719 163.066406 152.75 163.089844 L 152.339844 163.207031 C 152.0625 163.296875 151.785156 163.386719 151.542969 163.527344 L 149.949219 164.214844 C 149.292969 164.46875 148.636719 164.769531 147.980469 165.023438 C 148.03125 164.679688 147.90625 164.351562 147.648438 164.007812 C 149.152344 163.351562 150.691406 162.742188 152.195312 162.085938 C 153.886719 161.367188 155.578125 160.609375 157.304688 159.941406 C 158.148438 159.582031 159.03125 159.273438 159.910156 158.960938 C 160.328125 158.804688 160.792969 158.652344 161.21875 158.453125 L 161.871094 158.195312 C 162.105469 158.101562 162.296875 157.996094 162.433594 157.664062 C 162.148438 157.492188 161.886719 157.496094 161.65625 157.550781 L 160.972656 157.714844 C 160.519531 157.820312 160.101562 157.980469 159.644531 158.089844 C 158.769531 158.355469 157.890625 158.664062 157.007812 158.972656 C 155.253906 159.546875 153.496094 160.125 151.730469 160.785156 C 150.003906 161.453125 148.347656 162.265625 146.6875 163.074219 C 146.085938 162.675781 145.308594 162.296875 144.277344 161.839844 C 138.949219 159.511719 133.667969 157.195312 128.339844 154.867188 C 140.089844 152.386719 152.097656 150.25 164.066406 149.292969 C 164.6875 149.25 165.265625 149.203125 165.84375 149.160156 C 166.574219 149.574219 167.34375 150.304688 168.09375 150.28125 C 168.539062 150.261719 169 149.800781 169.765625 149.078125 C 176.347656 149.171875 182.375 150.328125 189.066406 151.445312 C 191.976562 151.964844 192.925781 150.917969 195.550781 149.503906 C 195.835938 149.371094 196.125 149.195312 196.40625 149.058594 C 196.691406 150.113281 197.160156 151.105469 197.777344 151.988281 C 197.851562 152.085938 197.929688 152.140625 198.066406 152.117188 C 198.152344 152.128906 198.25 152.058594 198.304688 151.976562 C 198.355469 151.941406 198.367188 151.855469 198.382812 151.769531 L 198.386719 151.726562 C 198.410156 150.980469 198.246094 150.296875 198.167969 149.628906 C 198.109375 149.136719 198.050781 148.644531 197.984375 148.195312 C 197.96875 148.015625 197.957031 147.792969 197.941406 147.617188 C 197.90625 147.257812 197.871094 146.902344 197.835938 146.546875 C 197.804688 146.144531 197.820312 145.753906 197.828125 145.402344 C 197.832031 144.785156 197.871094 144.222656 197.957031 143.621094 C 198.105469 142.324219 198.425781 141.050781 198.867188 139.84375 C 198.921875 140.378906 199.015625 140.917969 199.113281 141.460938 C 199.28125 142.40625 199.441406 143.398438 199.652344 144.351562 C 199.722656 144.757812 199.839844 145.171875 199.960938 145.542969 C 200.105469 146.046875 200.207031 146.542969 200.351562 147.050781 C 200.390625 147.097656 200.378906 147.183594 200.414062 147.234375 C 200.710938 148.203125 201.011719 149.125 201.402344 150.0625 C 201.792969 151 202.1875 151.890625 202.71875 152.761719 C 203.492188 154.0625 204.457031 155.261719 205.734375 156.152344 C 206.132812 156.429688 206.574219 156.714844 207.070312 156.921875 C 206.101562 155.152344 205.328125 153.542969 204.574219 151.804688 C 203.8125 150.109375 203.1875 148.390625 202.710938 146.5625 C 202.648438 146.378906 202.597656 146.148438 202.535156 145.964844 C 203.484375 145.492188 204.46875 145.066406 205.464844 144.597656 C 205.695312 145.113281 205.976562 145.59375 206.339844 146.089844 C 206.414062 146.1875 206.496094 146.242188 206.628906 146.21875 C 206.714844 146.230469 206.816406 146.160156 206.871094 146.078125 C 206.917969 146.042969 206.933594 145.957031 206.945312 145.871094 L 206.953125 145.828125 C 206.960938 145.167969 206.871094 144.585938 206.78125 144 C 206.75 143.90625 206.765625 143.820312 206.734375 143.730469 C 206.710938 143.285156 206.601562 142.832031 206.582031 142.386719 C 206.527344 142.160156 206.515625 141.9375 206.511719 141.675781 C 206.460938 141.402344 206.464844 141.097656 206.414062 140.824219 C 206.351562 139.761719 206.375 138.710938 206.527344 137.675781 C 206.675781 136.378906 206.996094 135.109375 207.4375 133.898438 C 207.492188 134.433594 207.585938 134.976562 207.683594 135.519531 C 207.902344 137 208.214844 138.453125 208.574219 139.914062 C 208.679688 140.367188 208.832031 140.832031 208.941406 141.285156 C 208.941406 141.285156 208.933594 141.328125 208.976562 141.335938 C 209.121094 141.839844 209.273438 142.300781 209.460938 142.8125 C 209.621094 143.234375 209.777344 143.652344 209.9375 144.070312 C 210.324219 145.007812 210.722656 145.902344 211.246094 146.8125 C 212.019531 148.113281 212.984375 149.3125 214.261719 150.203125 C 214.660156 150.480469 215.101562 150.765625 215.597656 150.972656 C 214.628906 149.203125 213.855469 147.59375 213.101562 145.855469 C 212.542969 144.585938 212.03125 143.28125 211.621094 141.902344 C 212.320312 141.609375 213.023438 141.316406 213.71875 141.070312 C 213.980469 141.679688 214.300781 142.210938 214.660156 142.746094 C 214.734375 142.84375 214.8125 142.902344 214.949219 142.878906 C 215.035156 142.890625 215.132812 142.816406 215.1875 142.738281 C 215.238281 142.699219 215.25 142.613281 215.261719 142.527344 L 215.269531 142.484375 C 215.285156 141.785156 215.160156 141.148438 215.082031 140.480469 C 215.089844 140.4375 215.050781 140.386719 215.058594 140.34375 C 215 139.851562 214.941406 139.359375 214.882812 138.867188 C 214.863281 138.6875 214.847656 138.511719 214.835938 138.289062 C 214.792969 137.976562 214.757812 137.617188 214.757812 137.3125 C 214.691406 136.289062 214.75 135.289062 214.859375 134.25 C 215.007812 132.953125 215.328125 131.679688 215.769531 130.472656 C 215.824219 131.007812 215.917969 131.546875 216.015625 132.089844 C 216.234375 133.574219 216.546875 135.027344 216.902344 136.484375 C 217.011719 136.941406 217.164062 137.402344 217.316406 137.863281 C 217.316406 137.863281 217.308594 137.90625 217.351562 137.914062 C 217.496094 138.417969 217.640625 138.921875 217.835938 139.390625 C 217.996094 139.8125 218.152344 140.230469 218.308594 140.648438 C 218.699219 141.585938 219.09375 142.480469 219.625 143.347656 C 220.402344 144.648438 221.367188 145.847656 222.640625 146.738281 C 223.039062 147.015625 223.480469 147.300781 223.976562 147.507812 C 223.007812 145.738281 222.234375 144.128906 221.480469 142.390625 C 220.914062 141.164062 220.449219 139.867188 220.023438 138.574219 C 245.082031 129.617188 271.507812 126.3125 297.707031 122.140625 C 298.246094 122.046875 299.644531 121.8125 300.980469 121.394531 C 305.015625 124.714844 300.46875 130.503906 297.433594 135.285156 Z M 124.984375 195.425781 C 124.253906 195.007812 123.484375 194.28125 122.734375 194.300781 C 122.117188 194.296875 121.503906 195.175781 120.160156 196.25 C 122.035156 196.351562 122.980469 196.492188 123.957031 196.414062 C 124.320312 196.335938 124.625 195.765625 124.984375 195.425781 Z M 282.09375 129.019531 C 282.117188 128.585938 282.296875 127.953125 282.066406 127.742188 C 281.636719 127.371094 280.992188 127.273438 280.371094 127.007812 C 279.828125 127.410156 279.351562 127.648438 279.082031 128.003906 C 278.976562 128.121094 279.367188 128.75 279.648438 128.921875 C 279.765625 129.027344 280.214844 128.65625 280.546875 128.484375 C 280.738281 128.378906 280.941406 128.191406 281.027344 128.203125 C 281.382812 128.476562 281.734375 128.792969 282.09375 129.019531 Z M 253.535156 144.710938 L 255.457031 142.402344 C 255.457031 142.402344 253.222656 142.070312 251.589844 142.710938 L 252.796875 144.644531 C 252.980469 144.894531 253.367188 144.949219 253.535156 144.710938 Z M 257.984375 142.554688 C 257.984375 142.554688 258.269531 144.796875 258.914062 144.890625 C 259.554688 145.027344 262.492188 142.695312 262.492188 142.695312 C 261.46875 142.191406 257.984375 142.554688 257.984375 142.554688 Z M 268.828125 143.542969 C 267.5625 143.179688 264.398438 142.886719 264.398438 142.886719 C 264.398438 142.886719 264.34375 145.035156 265.347656 145.09375 C 266.34375 145.195312 268.828125 143.542969 268.828125 143.542969 Z M 270.910156 144.027344 C 270.910156 144.027344 270.851562 146.214844 271.785156 146.441406 C 272.761719 146.671875 275.140625 145.441406 275.140625 145.441406 C 273.957031 144.828125 270.910156 144.027344 270.910156 144.027344 Z M 279.441406 147.570312 C 278.371094 146.492188 276.636719 146.324219 276.636719 146.324219 L 275.878906 149.066406 C 275.878906 149.066406 280.519531 148.609375 279.441406 147.570312 Z M 280.691406 148.941406 L 279.140625 151.703125 L 281.890625 151.230469 C 282.074219 150.289062 280.691406 148.941406 280.691406 148.941406 Z M 246.972656 144.796875 C 245.902344 144.902344 243.527344 146.398438 243.527344 146.398438 L 247.234375 146.59375 C 247.226562 146.636719 248.042969 144.691406 246.972656 144.796875 Z M 260.933594 148.179688 C 260.933594 148.179688 262.726562 146.15625 261.171875 146.277344 C 259.613281 146.402344 257.253906 147.503906 257.253906 147.503906 C 258.59375 147.65625 259.878906 147.890625 260.933594 148.179688 Z M 257.253906 147.503906 C 257.253906 147.503906 257.902344 145.796875 256.378906 145.703125 C 254.894531 145.613281 252.527344 147.066406 252.527344 147.066406 C 252.527344 147.066406 252.664062 145.242188 251.65625 145.53125 C 250.644531 145.820312 249.164062 146.921875 249.164062 146.921875 C 249.164062 146.921875 253.332031 146.964844 257.253906 147.503906 Z M 267.875 149.996094 C 267.875 149.996094 269.128906 147.761719 268.28125 147.242188 C 267.4375 146.722656 263.527344 148.78125 263.527344 148.78125 Z M 269.269531 150.683594 C 269.269531 150.683594 271.054688 151.386719 272.074219 152.8125 C 272.074219 152.8125 274.15625 150.613281 273.320312 149.742188 C 272.480469 148.871094 269.269531 150.683594 269.269531 150.683594 Z M 273.066406 153.839844 C 273.066406 153.839844 274.421875 154.785156 274.121094 156.808594 C 274.121094 156.808594 277.148438 154.175781 277.0625 152.976562 C 276.980469 151.734375 273.066406 153.839844 273.066406 153.839844 Z M 257.089844 121.851562 C 257.839844 121.832031 258.53125 121.320312 258.613281 120.761719 C 258.644531 120.542969 258.582031 120.359375 258.472656 120.210938 C 258.265625 120.136719 258.007812 120.097656 257.792969 120.066406 C 257.40625 120.011719 257.015625 119.953125 256.574219 119.976562 C 256.191406 120.183594 255.925781 120.496094 255.867188 120.882812 C 255.792969 121.398438 256.335938 121.875 257.089844 121.851562 Z M 257.089844 121.851562 " fill-opacity="1" fill-rule="nonzero"/></g></g></g><g fill="#ffffff" fill-opacity="1"><g transform="translate(34.024591, 202.86163)"><g><path d="M 0.167969 -0.015625 L 25.546875 -2.457031 L 26.109375 -12.035156 L 12.851562 -10.761719 L 14.171875 -31.84375 L 2.046875 -30.679688 Z M 0.167969 -0.015625 "/></g></g></g><g fill="#ffffff" fill-opacity="1"><g transform="translate(59.40209, 200.42259)"><g><path d="M 18.933594 -0.804688 C 30.929688 -1.957031 40.101562 -10.5 39.019531 -21.742188 C 38.234375 -29.921875 31.148438 -34.492188 20.367188 -33.457031 C 8.367188 -32.304688 -0.804688 -23.800781 0.277344 -12.515625 C 1.066406 -4.335938 8.152344 0.234375 18.933594 -0.804688 Z M 19.34375 -10.15625 C 15.316406 -9.769531 12.726562 -11.636719 12.398438 -15.035156 C 11.960938 -19.609375 15.042969 -23.628906 19.953125 -24.101562 C 23.980469 -24.488281 26.574219 -22.621094 26.898438 -19.222656 C 27.339844 -14.652344 24.253906 -10.628906 19.34375 -10.15625 Z M 19.34375 -10.15625 "/></g></g></g><g fill="#ffffff" fill-opacity="1"><g transform="translate(97.53155, 196.757956)"><g><path d="M -1.761719 0.167969 L 10.363281 -0.996094 L 12.214844 -5.957031 L 22.492188 -6.945312 L 23.617188 -2.269531 L 36.078125 -3.46875 L 26.378906 -33.019531 L 11.945312 -31.628906 Z M 14.433594 -13.242188 L 18.519531 -24.050781 L 18.601562 -24.058594 L 21.1875 -13.890625 Z M 14.433594 -13.242188 "/></g></g></g><g fill="#ffffff" fill-opacity="1"><g transform="translate(132.598857, 193.387626)"><g><path d="M 0.167969 -0.015625 L 11.328125 -1.089844 L 12.429688 -19.101562 L 12.515625 -19.109375 L 22.570312 -2.167969 L 36.664062 -3.523438 L 38.542969 -34.1875 L 27.382812 -33.113281 L 26.265625 -15.226562 L 26.183594 -15.21875 L 16.140625 -32.035156 L 2.046875 -30.679688 Z M 0.167969 -0.015625 "/></g></g></g><g fill="#ffffff" fill-opacity="1"><g transform="translate(170.141058, 189.779433)"><g><path d="M 16.066406 -0.65625 C 25.128906 -1.527344 32.972656 -6.257812 32.25 -13.769531 C 31.769531 -18.761719 28.199219 -21.125 20.285156 -21.507812 L 16.289062 -21.675781 C 13.949219 -21.832031 12.472656 -22.199219 12.382812 -23.121094 C 12.273438 -24.253906 14.191406 -25.03125 16.917969 -25.292969 C 19.980469 -25.585938 22.90625 -24.640625 24.625 -23.070312 L 31.285156 -28.199219 C 28.957031 -31.742188 23.519531 -33.675781 16.179688 -32.96875 C 7.410156 -32.125 0.109375 -27.953125 0.863281 -20.109375 C 1.324219 -15.285156 4.796875 -13.078125 12.453125 -12.710938 L 16.957031 -12.550781 C 19.253906 -12.433594 20.578125 -11.882812 20.667969 -10.917969 C 20.78125 -9.746094 19.121094 -8.949219 16.394531 -8.6875 C 12.496094 -8.3125 8.65625 -9.46875 6.601562 -11.472656 L -0.59375 -6.167969 C 2.007812 -2.011719 8.265625 0.09375 16.066406 -0.65625 Z M 16.066406 -0.65625 "/></g></g></g><g fill="#ffffff" fill-opacity="1"><g transform="translate(201.475065, 186.767912)"><g><path d="M 0.167969 -0.015625 L 12.292969 -1.179688 L 13.007812 -12.679688 L 22.90625 -13.632812 L 22.191406 -2.132812 L 34.3125 -3.296875 L 36.195312 -33.960938 L 24.070312 -32.796875 L 23.421875 -22.359375 L 13.523438 -21.410156 L 14.171875 -31.84375 L 2.046875 -30.679688 Z M 0.167969 -0.015625 "/></g></g></g><g fill="#ffffff" fill-opacity="1"><g transform="translate(236.668203, 183.385488)"><g><path d="M -1.761719 0.167969 L 10.363281 -0.996094 L 12.214844 -5.957031 L 22.492188 -6.945312 L 23.617188 -2.269531 L 36.078125 -3.46875 L 26.378906 -33.019531 L 11.945312 -31.628906 Z M 14.433594 -13.242188 L 18.519531 -24.050781 L 18.601562 -24.058594 L 21.1875 -13.890625 Z M 14.433594 -13.242188 "/></g></g></g><g fill="#ffffff" fill-opacity="1"><g transform="translate(271.735511, 180.015158)"><g><path d="M 27.636719 -1.851562 C 30.363281 -2.113281 33.71875 -3.324219 35.566406 -4.816406 L 34.375 -9.695312 C 33.902344 -9.355469 33.125 -9.070312 32.578125 -9.015625 C 31.613281 -8.921875 31.023438 -9.332031 30.699219 -10.0625 L 29.609375 -12.160156 C 29.191406 -13.433594 28.519531 -14.257812 27.390625 -14.53125 L 27.386719 -14.570312 C 32.574219 -16.550781 35.15625 -20.523438 34.703125 -25.222656 C 34.175781 -30.71875 29.648438 -33.332031 22.140625 -32.609375 L 2.046875 -30.679688 L 0.167969 -0.015625 L 12.292969 -1.179688 L 12.875 -10.976562 L 15.222656 -11.199219 C 16.773438 -11.351562 17.9375 -10.699219 18.65625 -9.414062 L 19.574219 -6.878906 C 20.753906 -3.859375 23.191406 -1.425781 27.636719 -1.851562 Z M 13.300781 -18 L 13.679688 -24.175781 L 18.964844 -24.683594 C 21.148438 -24.894531 22.40625 -24.125 22.5625 -22.488281 C 22.785156 -20.183594 21.355469 -18.773438 18.585938 -18.507812 Z M 13.300781 -18 "/></g></g></g><g fill="#ffffff" fill-opacity="1"><g transform="translate(306.341413, 176.689174)"><g><path d="M 0.167969 -0.015625 L 12.292969 -1.179688 L 12.734375 -8.886719 L 15.96875 -12.246094 L 20.679688 -1.988281 L 35.027344 -3.367188 L 24.847656 -21.1875 L 36.90625 -34.03125 L 22.351562 -32.628906 L 13.667969 -22.523438 L 13.582031 -22.558594 L 14.171875 -31.84375 L 2.046875 -30.679688 Z M 0.167969 -0.015625 "/></g></g></g><path stroke-linecap="butt" transform="matrix(0.74656, -0.0717521, 0.0717521, 0.74656, 26.502357, 164.404883)" fill="none" stroke-linejoin="miter" d="M 5.296123 52.002235 L 39.290877 51.999273 L 41.264899 39.354084 L 23.501274 39.352557 L 27.947511 11.546216 L 11.706512 11.544523 Z M 64.297596 53.345746 C 80.376882 53.34236 93.628823 43.178128 93.627276 28.114092 C 93.628598 17.157713 84.806007 10.198406 70.364401 10.202219 C 54.295982 10.201417 41.03347 20.31231 41.030035 35.42819 C 41.034894 46.374698 49.851304 53.343876 64.297596 53.345746 Z M 66.040524 40.981821 C 60.651218 40.981854 57.44174 38.172335 57.438753 33.630382 C 57.442077 27.498407 62.050018 22.562439 68.621971 22.560959 C 74.026831 22.562421 77.221752 25.360077 77.223743 29.912398 C 77.220418 36.044373 72.611979 40.985525 66.040524 40.981821 Z M 87.784266 51.997979 L 104.025266 51.999672 L 107.116004 45.646428 L 120.887524 45.646233 L 121.778522 52.000202 L 138.475053 51.998584 L 129.365874 11.54573 L 110.03765 11.545566 Z M 110.994744 36.266145 L 117.785043 22.451362 L 117.894913 22.451457 L 120.036177 36.266553 Z M 137.33438 51.998833 L 152.288048 52.002376 L 156.04862 28.227052 L 156.168859 28.228143 L 167.352084 52.000828 L 186.225275 51.999117 L 192.635165 11.54659 L 177.681497 11.543047 L 173.922313 35.140605 L 173.812443 35.14051 L 162.633014 11.546089 L 143.74427 11.546306 Z M 208.81475 53.181288 C 220.943406 53.180166 231.957683 47.897164 231.961436 37.84098 C 231.961048 31.148789 227.529608 27.552088 217.07376 26.044869 L 211.792497 25.30183 C 208.695082 24.81054 206.788382 24.124983 206.786733 22.889993 C 206.785073 21.382922 209.435973 20.586002 213.082915 20.585944 C 217.185388 20.582577 220.94227 22.215109 223.027804 24.524181 L 232.521519 18.566571 C 229.889212 13.562621 222.918617 10.307902 213.081674 10.309522 C 201.340155 10.311225 191.107401 14.921116 191.107456 25.427647 C 191.10903 31.88973 195.442654 35.252039 205.552141 36.715505 L 211.504191 37.502084 C 214.537695 37.950605 216.224466 38.855712 216.225818 40.148228 C 216.227181 41.712827 213.921646 42.56387 210.26952 42.563429 C 205.042426 42.563355 200.104974 40.52958 197.622706 37.612054 L 187.400985 43.740382 C 190.324154 49.583299 198.365747 53.181639 208.81475 53.181288 Z M 229.595757 52.002531 L 245.837255 51.999038 L 248.25294 36.827222 L 261.517085 36.825353 L 259.100901 52.002355 L 275.342399 51.998863 L 281.736736 11.54484 L 265.506105 11.544145 L 263.315084 25.303895 L 250.045755 25.305265 L 252.241961 11.546013 L 236.000961 11.544321 Z M 274.154569 51.999811 L 290.395568 52.001503 L 293.486307 45.64826 L 307.257826 45.648064 L 308.148824 52.002034 L 324.845355 52.000416 L 315.736674 11.542377 L 296.407952 11.547398 Z M 297.365544 36.262793 L 304.155345 22.453194 L 304.265215 22.453289 L 306.406977 36.263201 Z M 360.401065 53.068369 C 364.053191 53.06881 368.661094 51.889654 371.308365 50.150565 L 370.349459 43.52322 C 369.674105 43.908292 368.605528 44.192783 367.877915 44.196105 C 366.591081 44.19277 365.849682 43.577352 365.518234 42.561817 L 364.33935 39.638752 C 363.941371 37.899993 363.160466 36.715686 361.691857 36.208274 L 361.691655 36.155931 C 368.823541 34.193818 372.763388 29.240731 372.761422 22.946045 C 372.762102 15.58945 367.081495 11.543054 357.029998 11.544983 L 330.115071 11.542953 L 323.704682 52.000665 L 339.946181 51.997173 L 341.978216 39.075013 L 345.122468 39.078965 C 347.20531 39.075086 348.661379 40.094062 349.441014 41.89043 L 350.346344 45.373226 C 351.526877 49.531281 354.446357 53.071617 360.401065 53.068369 Z M 343.434539 29.802013 L 344.720024 21.653242 L 351.799352 21.653436 C 354.723865 21.657198 356.300777 22.834293 356.298878 25.03169 C 356.300407 28.118914 354.228705 29.803442 350.513867 29.802206 Z M 370.058201 51.997768 L 386.304385 51.999959 L 387.878017 41.83304 L 392.599256 37.786993 L 397.538031 52.001767 L 416.756385 52.001836 L 405.51937 27.046706 L 423.161588 11.543626 L 403.671152 11.543569 L 390.857088 23.848052 L 390.747016 23.795614 L 392.709091 11.546933 L 376.468091 11.545241 Z M 370.058201 51.997768 " stroke="#000b17" stroke-width="2.809975" stroke-opacity="1" stroke-miterlimit="4"/></svg>